<svg width="149" height="115" viewBox="0 0 149 115" fill="none" xmlns="http://www.w3.org/2000/svg">
<path d="M37.7391 100.635L29.1221 101.24L21.5256 100.559C25.7585 101.428 30.1426 101.617 34.451 101.24L37.7391 100.635ZM21.3367 100.257L19.9383 100.068C19.9383 100.332 21.2989 100.635 21.3367 100.257ZM19.7493 99.8412H19.1446V100.03H19.7493V99.8412ZM18.9557 99.6522L16.1967 98.8585L18.351 99.7656L18.9557 99.6522ZM15.97 98.6696C15.97 98.6318 15.2519 98.4428 15.2141 98.4806C15.1385 98.7451 15.6676 98.8207 15.97 98.8585C15.97 98.7829 16.0078 98.7074 15.97 98.6696ZM14.9873 98.2538L11.8505 96.8933L14.4582 98.3294L14.9873 98.2538ZM11.2458 96.2886H10.83V96.4775H11.2458V96.2886ZM10.6411 95.9106H10.2631V96.0996H10.6411V95.9106ZM10.0742 95.4949H9.65843V95.6839H10.0742V95.4949ZM9.46946 95.117H9.05373V95.3059H9.46946V95.117ZM8.6758 94.7012C8.75138 94.6256 8.33565 94.1721 8.0711 94.3233C7.99551 94.3989 8.41124 94.8524 8.6758 94.7012ZM6.48377 92.9249C6.71053 93.3029 7.08847 93.7564 7.50419 93.7186L6.48377 92.9249ZM70.3549 85.215C70.0904 85.2528 69.8636 85.1772 69.6369 85.0261C67.8228 83.7033 65.215 81.0199 63.4387 79.3948C56.9004 73.4234 50.3999 66.5828 43.7483 60.9137C34.0731 52.6369 21.7146 57.21 16.0078 67.5654C10.9434 76.8249 12.7953 87.7472 20.6186 94.7012C25.6829 99.1987 32.259 101.013 38.9107 100.408C38.9107 100.408 44.6175 99.8412 47.1497 99.2743C52.7053 98.0271 57.8453 95.5327 62.4939 92.3202C65.3284 90.355 68.2763 87.9362 70.3549 85.215ZM143.032 0.255021C143.183 0.406195 143.259 0.708544 143.259 0.935306C144.015 6.22641 143.41 12.9915 143.486 18.5093C143.561 23.2713 143.863 28.1467 143.901 32.9087C143.939 37.255 143.939 41.5634 143.788 45.8719C143.448 46.2876 142.843 46.6656 142.314 46.3632L133.508 37.5573L133.017 37.4817L89.7431 85.1395C89.6675 85.4418 93.2579 88.881 93.787 89.3723C99.2293 94.7012 104.596 100.332 112.419 101.958C130.787 105.813 146.471 84.4214 133.508 69.1905C128.67 63.5215 123.493 62.9924 116.841 61.1783C116.652 61.1027 116.35 61.2161 116.425 60.9137C129.766 53.544 145.073 61.783 148.285 76.1824C152.405 94.5123 136.04 113.031 117.899 114.089C102.366 114.996 92.0107 105.699 81.7308 95.6839C81.5041 95.5327 81.2017 95.3059 80.9372 95.3059C80.5592 95.3059 76.4775 99.501 75.6838 100.144C55.0863 117.566 16.5747 121.837 3.49807 93.2651C-10.9013 61.783 25.6073 28.1845 53.5368 51.3142C58.1476 55.1313 62.7962 59.6666 67.1803 63.7861C71.1864 67.4898 74.9658 71.4204 79.1231 74.9352L117.786 30.1498C117.975 29.7718 117.143 29.7718 116.879 29.6962C114.007 29.016 111.059 28.7892 108.186 28.1089C107.355 27.8443 107.317 26.8617 107.695 26.2192L141.067 0.443989C141.482 -0.0473277 142.616 -0.160709 143.032 0.255021Z" fill="#0037CA"/>
<path d="M47.0351 99.3121C44.503 99.879 38.9095 100.408 38.9095 100.408C32.2578 100.937 25.8707 99.2743 20.8064 94.8524C12.9075 87.974 10.98 76.9383 16.0066 67.7166C21.7134 57.3612 34.0719 52.7881 43.7471 61.0649C50.3988 66.734 56.8993 73.5746 63.4375 79.546C64.7603 80.7932 68.3507 84.3458 69.938 85.7442L79.5754 74.4061C75.3803 70.9291 71.5254 66.734 67.5193 63.0302C63.1352 58.9485 58.4866 54.3755 53.8758 50.5583C25.9463 27.4286 -12.3008 61.8586 3.83704 92.5092C13.2476 110.386 41.1393 103.885 51.0035 98.1783C49.7185 98.6318 48.3579 99.0097 47.0351 99.3121Z" fill="#F1891A"/>
</svg>
